# xmcd CD database file
#
# Track frame offsets:
#	150
#	29944
#	57730
#	95580
#	120145
#	147856
#	183397
#	208584
#	248161
#	269959
#	296635
#
# Disc length: 4314 seconds
#
# Revision: 0
# Processed by: cddbd v1.4PL0 Copyright (c) Steve Scherf et al.
# Submitted via: CDex 1.40Release
#
DISCID=b410d80b
DTITLE=Blue Monday Jam - Anniversary Night
DYEAR=2003
DGENRE=Blues
TTITLE0=You're Sweet - Kai Strauss
TTITLE1=Hold it right there - Thomas Feldmann
TTITLE2=Sweet little Angel - Tom Vieth
TTITLE3=I got to find my Baby - Doug Jay
TTITLE4=Moanin' for Molasses - Doug Jay
TTITLE5=Blue Shadows/Uncle Bud's Blues - Christian Rannenberg
TTITLE6=Feeling Good - Paris Slim
TTITLE7=Witchin' Moon - Michael van Merwyk
TTITLE8=Money is getting cheaper - Gerd Gorke
TTITLE9=Dynomite Nitro - Memo Gonzalez
TTITLE10=Sweet little thing - Memo Gonzales
EXTD=YEAR: 2003 ID3G: 0
EXTT0=
EXTT1=
EXTT2=
EXTT3=
EXTT4=
EXTT5=
EXTT6=
EXTT7=
EXTT8=
EXTT9=
EXTT10=
PLAYORDER=
